<?xml version="1.0" encoding="iso-8859-1"?>
<!-- Generator: Adobe Illustrator 19.0.0, SVG Export Plug-In . SVG Version: 6.00 Build 0)  -->
<svg version="1.1" id="Capa_1" xmlns="http://www.w3.org/2000/svg" xmlns:xlink="http://www.w3.org/1999/xlink" x="0px" y="0px"
	 viewBox="0 0 512 512" style="enable-background:new 0 0 512 512;" xml:space="preserve">
<g>
	<g>
		<polygon points="271,30 271,0 241,0 241,30 211,30 211,60 241,60 241,90 271,90 271,60 301,60 301,30 		"/>
	</g>
</g>
<g>
	<g>
		<path d="M0,110v402h512V110H0z M317,437H75v-90h242V437z M437,482h-60V347h60V482z M482,245
			c-0.001,13.877-11.291,25.167-25.168,25.167c-13.877,0-25.166-11.29-25.166-25.167h-30c0,13.877-11.29,25.167-25.167,25.167
			c-13.877,0-25.166-11.29-25.166-25.167h-30c0,13.877-11.29,25.167-25.167,25.167C282.289,270.167,271,258.877,271,245h-30
			c0,13.877-11.289,25.167-25.166,25.167c-13.877,0-25.167-11.29-25.167-25.167h-30c0,13.877-11.289,25.167-25.166,25.167
			c-13.877,0-25.167-11.29-25.167-25.167h-30c0,13.877-11.289,25.167-25.166,25.167c-13.877,0-25.167-11.29-25.167-25.167H30v-45
			h452V245z"/>
	</g>
</g>
<g>
</g>
<g>
</g>
<g>
</g>
<g>
</g>
<g>
</g>
<g>
</g>
<g>
</g>
<g>
</g>
<g>
</g>
<g>
</g>
<g>
</g>
<g>
</g>
<g>
</g>
<g>
</g>
<g>
</g>
</svg>
